<svg xmlns="http://www.w3.org/2000/svg" width="49" height="49" fill="none" overflow="visible"><g><path d="M 11.936 49 C 5.344 49 0 43.656 0 37.064 L 0 11.936 C 0 5.344 5.344 0 11.936 0 L 37.064 0 C 43.656 0 49 5.344 49 11.936 L 49 37.064 C 49 43.656 43.656 49 37.064 49 Z" fill="rgb(255, 255, 255)" stroke="rgb(255,255,255)" stroke-miterlimit="10" stroke-dasharray=""></path><g transform="translate(14.194 10.129)"><path d="M 3.401 29.33 C 1.163 29.33 0 28.137 0 25.724 L 0 15.298 C 0 13.163 0.927 11.986 2.694 11.75 L 2.694 8.246 C 2.694 2.813 6.287 0 10.306 0 C 14.327 0 17.919 2.813 17.919 8.246 L 17.919 11.751 C 19.685 11.986 20.598 13.163 20.598 15.298 L 20.598 25.722 C 20.598 28.137 19.435 29.33 17.196 29.33 Z M 5.448 7.981 L 5.448 11.706 L 15.165 11.706 L 15.165 7.981 C 15.165 4.536 12.927 2.651 10.306 2.651 C 7.67 2.651 5.448 4.536 5.448 7.981 Z M 3.827 26.695 L 16.784 26.695 C 17.403 26.695 17.742 26.327 17.742 25.619 L 17.742 15.401 C 17.742 14.695 17.403 14.342 16.784 14.342 L 3.828 14.342 C 3.225 14.342 2.856 14.694 2.856 15.401 L 2.856 25.619 C 2.856 26.327 3.224 26.695 3.828 26.695 Z" fill="rgb(1, 181, 3)"></path></g><g transform="translate(20.871 26.94)"><path d="M 3.629 3.77 C 2.692 3.77 1.898 2.934 1.898 1.868 C 1.898 0.82 2.696 0 3.629 0 C 4.561 0 5.359 0.804 5.359 1.859 C 5.359 2.934 4.57 3.77 3.629 3.77 Z M 0.769 7.761 C 0.288 7.761 0 7.533 0 7.155 C 0 6.051 1.4 4.531 3.629 4.531 C 5.852 4.531 7.257 6.051 7.257 7.155 C 7.257 7.532 6.966 7.761 6.484 7.761 L 0.768 7.761 Z" fill="rgb(1, 181, 3)"></path></g></g></svg>