<svg xmlns="http://www.w3.org/2000/svg" width="280" height="32" viewBox="0 0 280 32" role="img" aria-label="VerifyYou Docs">
  <g transform="translate(0,0) scale(0.6530612245)">
    <mask id="mask0_1977_11142_dark" style="mask-type:luminance" maskUnits="userSpaceOnUse" x="0" y="0" width="49" height="49">
      <path d="M38 0H11C4.92487 0 0 4.92487 0 11V38C0 44.0751 4.92487 49 11 49H38C44.0751 49 49 44.0751 49 38V11C49 4.92487 44.0751 0 38 0Z" fill="white"/>
    </mask>
    <g mask="url(#mask0_1977_11142_dark)">
      <path d="M11.936 49C5.344 49 0 43.656 0 37.064V11.936C0 5.344 5.344 0 11.936 0H37.064C43.656 0 49 5.344 49 11.936V37.064C49 43.656 43.656 49 37.064 49H11.936Z" fill="#00E500" stroke="#00E500" stroke-miterlimit="10"/>
      <path d="M17.5953 39.4589C15.3573 39.4589 14.1943 38.2659 14.1943 35.8529V25.4269C14.1943 23.2919 15.1213 22.1149 16.8883 21.8789V18.3749C16.8883 12.9419 20.4813 10.1289 24.5003 10.1289C28.5213 10.1289 32.1133 12.9419 32.1133 18.3749V21.8799C33.8793 22.1149 34.7923 23.2919 34.7923 25.4269V35.8509C34.7923 38.2659 33.6293 39.4589 31.3903 39.4589H17.5953ZM19.6423 18.1099V21.8349H29.3593V18.1099C29.3593 14.6649 27.1213 12.7799 24.5003 12.7799C21.8643 12.7799 19.6423 14.6649 19.6423 18.1099ZM18.0213 36.8239H30.9783C31.5973 36.8239 31.9363 36.4559 31.9363 35.7479V25.5299C31.9363 24.8239 31.5973 24.4709 30.9783 24.4709H18.0223C17.4193 24.4709 17.0503 24.8229 17.0503 25.5299V35.7479C17.0503 36.4559 17.4183 36.8239 18.0223 36.8239H18.0213Z" fill="white"/>
      <path d="M24.5001 30.7095C23.5631 30.7095 22.7691 29.8735 22.7691 28.8075C22.7691 27.7595 23.5671 26.9395 24.5001 26.9395C25.4321 26.9395 26.2301 27.7435 26.2301 28.7985C26.2301 29.8735 25.4411 30.7095 24.5001 30.7095ZM21.6401 34.7005C21.1591 34.7005 20.8711 34.4725 20.8711 34.0945C20.8711 32.9905 22.2711 31.4705 24.5001 31.4705C26.7231 31.4705 28.1281 32.9905 28.1281 34.0945C28.1281 34.4715 27.8371 34.7005 27.3551 34.7005H21.6401Z" fill="white"/>
    </g>
  </g>
  <text x="40" y="22" font-family="Arial, Helvetica, sans-serif" font-size="20" font-weight="700" fill="#FFFFFF">VerifyYou Docs</text>
</svg>
